HIERARCHY
ROOT Hips
{
  OFFSET 0 0 0
  CHANNELS 6 Xposition Yposition Zposition Zrotation Yrotation Xrotation
  JOINT LeftThigh
  {
    OFFSET 8.409438 0 -5.917753
    CHANNELS 3 Zrotation Yrotation Xrotation
    JOINT LeftLeg
    {
      OFFSET 0 0 -42.358652
      CHANNELS 3 Zrotation Yrotation Xrotation
      JOINT LeftFoot
      {
        OFFSET 0 0 -39.357303
        CHANNELS 3 Zrotation Yrotation Xrotation
      }
    }
  }
  JOINT RightThigh
  {
    OFFSET -8.409438 0 -5.917753
    CHANNELS 3 Zrotation Yrotation Xrotation
    JOINT RightLeg
    {
      OFFSET 0 0 -42.358652
      CHANNELS 3 Zrotation Yrotation Xrotation
      JOINT RightFoot
      {
        OFFSET 0 0 -39.357303
        CHANNELS 3 Zrotation Yrotation Xrotation
      }
    }
  }
  JOINT SpineLow
  {
    OFFSET 0 0 4.719101
    CHANNELS 3 Zrotation Yrotation Xrotation
    JOINT SpineMid
    {
      OFFSET 0 0 12.899191
      CHANNELS 3 Zrotation Yrotation Xrotation
      JOINT Chest
      {
        OFFSET 0 0 12.899191
        CHANNELS 3 Zrotation Yrotation Xrotation
        JOINT LeftShoulder
        {
          OFFSET 7.550562 1.41573 9.438202
          CHANNELS 3 Zrotation Yrotation Xrotation
          JOINT LeftArm
          {
            OFFSET 9.155056 0 4.247191
            CHANNELS 3 Zrotation Yrotation Xrotation
            JOINT LeftForearm
            {
              OFFSET 0 0 25.771955
              CHANNELS 3 Zrotation Yrotation Xrotation
              JOINT LeftHand
              {
                OFFSET 0 0 25.197169
                CHANNELS 3 Zrotation Yrotation Xrotation
              }
            }
          }
        }
        JOINT RightShoulder
        {
          OFFSET -7.550562 1.41573 9.438202
          CHANNELS 3 Zrotation Yrotation Xrotation
          JOINT RightArm
          {
            OFFSET -9.155056 0 4.247191
            CHANNELS 3 Zrotation Yrotation Xrotation
            JOINT RightForearm
            {
              OFFSET 0 0 -25.771955
              CHANNELS 3 Zrotation Yrotation Xrotation
              JOINT RightHand
              {
                OFFSET 0 0 -25.197169
                CHANNELS 3 Zrotation Yrotation Xrotation
              }
            }
          }
        }
        JOINT Neck
        {
          OFFSET 0 0 15.101124
          CHANNELS 3 Zrotation Yrotation Xrotation
          JOINT Head
          {
            OFFSET 0 0 11.325843
            CHANNELS 3 Zrotation Yrotation Xrotation
            End Site
            {
              OFFSET 0 0 14.157303
            }
          }
        }
      }
    }
  }
}
MOTION
Frames: 8
Frame Time: 0.0
0.0  93.25843  0.0  -2.497383  5.570638  -119.244421  7.786478  -8.589293  9.013818  -14.469281  1.58844  15.441626  2.934846  -0.499842  3.089094  18.924252  -31.139353  -83.888055  15.365554  33.917868  60.443358  -0.505114  7.413946  1.881525  0.257041  -2.214035  2.36601  0.486106  -6.070296  6.460346  0.486106  -6.070296  6.460347  -16.706557  29.260669  11.942257  115.57298  44.728559  -165.084723  -34.577397  13.229617  77.572943  75.839765  -19.353305  -21.968406  3.718558  -9.64664  27.964547  74.402639  65.092202  15.148498  -32.131195  -25.942134  -97.719657  51.694059  -4.728102  -21.917333  -4.042552  7.456009  16.495473  -3.232739  5.488062  12.404207  
0.0  93.25843  0.0  -2.400136  5.251086  -119.578376  7.503848  -8.553577  9.545814  -13.787889  1.359712  15.320369  2.816933  -0.609084  3.094828  19.545355  -32.129863  -83.189775  11.672403  32.962997  49.719946  0.678049  6.735107  1.334605  0.218845  -2.225705  2.408728  0.376435  -6.098578  6.581006  0.376435  -6.098577  6.581006  -16.537366  29.422075  12.083426  115.97744  44.939701  -164.875273  -34.819697  13.19968  77.562438  75.850118  -19.26078  -22.125302  3.819579  -9.572451  28.052433  74.829871  65.20158  15.452153  -32.207534  -26.008453  -97.770389  51.622234  -4.801767  -21.989829  -3.795962  7.550782  16.698788  -3.052993  5.564684  12.553527  
0.0  93.25843  0.0  -2.165287  4.903204  -119.585553  7.418336  -8.426752  9.686094  -13.348205  1.232869  15.186382  2.498511  -0.632536  3.035197  19.938241  -33.168866  -81.734627  8.349555  30.589043  38.0335  1.460761  6.035814  0.915342  0.204425  -2.180892  2.438836  0.338689  -5.974876  6.66454  0.338689  -5.974876  6.66454  -16.647316  29.397098  11.929291  116.5914  45.151819  -164.823358  -34.828052  12.999835  77.633244  75.763981  -19.083255  -22.307761  4.090201  -9.694777  28.027719  75.476727  65.108561  15.667344  -32.514109  -25.722844  -97.799417  51.546458  -4.860001  -21.949118  -3.500846  7.485506  16.758575  -2.830793  5.523394  12.594492  
0.0  93.25843  0.0  -1.944601  4.59021  -119.394836  7.316829  -8.2349  9.479626  -12.951501  1.176637  15.214834  2.332482  -0.714994  3.044152  19.879588  -33.9282  -79.859478  5.734651  27.005847  26.782872  2.651537  6.067542  0.992699  0.172556  -2.123399  2.440358  0.257141  -5.8147  6.67114  0.257141  -5.8147  6.67114  -16.433297  29.280798  11.980236  116.978434  45.439676  -164.77551  -34.858637  12.694944  77.67787  75.56192  -18.862598  -22.450261  4.298744  -9.77629  27.809586  75.435496  65.213862  15.523574  -32.115363  -25.904704  -98.182924  51.320509  -4.951153  -21.849157  -3.162944  7.392797  16.747783  -2.57487  5.463065  12.582122  
0.0  93.25843  0.0  -1.84771  4.415279  -119.058583  7.284236  -8.058449  9.076996  -13.023318  1.220778  15.139785  2.299649  -0.790254  3.124691  19.485879  -33.572959  -78.126814  3.542602  22.619287  17.136618  3.374194  6.304634  1.581184  0.118435  -2.066122  2.399067  0.118388  -5.652889  6.562223  0.118388  -5.652889  6.562223  -16.046323  29.395609  12.208038  117.296975  45.810906  -165.084811  -34.766608  12.588337  77.661712  75.277124  -18.768972  -22.481534  4.16484  -9.64072  27.430471  75.634985  64.979671  15.333351  -30.128908  -27.468018  -99.458718  52.377577  -4.412266  -20.936  -2.620354  7.267817  16.869903  -2.166239  5.383595  12.666923  
0.0  93.25843  0.0  -1.860176  4.591516  -118.699551  7.065891  -7.794329  8.584937  -13.010665  1.289077  15.214444  2.37889  -0.935804  3.238442  18.640309  -31.087313  -77.094176  1.365414  18.351594  10.738245  2.701014  6.541297  1.643657  0.055014  -2.025938  2.355466  -0.04747  -5.537008  6.447733  -0.04747  -5.537008  6.447733  -16.055177  29.302598  12.337445  117.546243  46.182432  -165.157122  -35.107481  12.654351  77.37854  75.024257  -18.725147  -22.452919  4.131006  -9.663051  27.083504  75.393629  64.836899  15.184792  -29.222673  -27.868391  -100.393406  52.153859  -4.376318  -20.810174  -2.447091  7.178982  16.793657  -2.033002  5.321932  12.607765  
0.0  93.25843  0.0  -2.035588  4.817358  -118.393893  6.973432  -7.755227  8.099403  -12.847293  1.344803  15.397013  2.331846  -1.062692  3.311092  18.228207  -27.121264  -77.427233  -1.723721  15.811982  6.209114  2.340929  4.806578  0.604986  0.008297  -2.034258  2.327536  -0.173766  -5.555303  6.375246  -0.173766  -5.555303  6.375247  -16.272327  29.309057  12.340032  117.771227  46.558349  -165.298692  -35.360577  12.945174  77.052345  75.277923  -17.48176  -20.778903  3.896168  -9.527942  26.461062  75.228157  64.454959  15.135724  -27.34283  -29.099765  -101.989576  52.869654  -3.992223  -20.28685  -2.230423  7.194374  16.742724  -1.870376  5.339579  12.567008  
0.0  93.25843  0.0  -2.157273  5.001906  -118.103285  7.343245  -7.857158  7.621161  -12.668167  1.402573  15.653351  2.034368  -1.046746  3.298466  18.42319  -22.782589  -78.639042  -6.256377  13.780269  3.302734  3.334977  3.81889  0.496097  -0.019275  -2.048678  2.298142  -0.248125  -5.592189  6.297249  -0.248125  -5.592189  6.297249  -16.501816  29.282572  12.37072  117.833491  46.960332  -165.460013  -35.986275  13.270795  76.622538  75.182653  -17.455557  -21.04699  3.681389  -9.423471  25.756418  75.331051  63.838919  15.295446  -26.430044  -29.373347  -103.138762  52.716856  -3.877866  -20.32985  -2.276807  7.214576  16.56986  -1.903608  5.354024  12.438068  
